<svg width="21" height="20" fill="none" xmlns="http://www.w3.org/2000/svg"><path fill-rule="evenodd" clip-rule="evenodd" d="M10.582 18.304a8.51 8.51 0 005.665-2.148 6.586 6.586 0 00-5.664-3.221 6.587 6.587 0 00-5.665 3.22 8.51 8.51 0 005.664 2.15zm0-6.59a7.803 7.803 0 016.542 3.542 8.542 8.542 0 10-13.082 0 7.803 7.803 0 016.54-3.541zm9.763-1.952a9.727 9.727 0 01-2.603 6.637 9.736 9.736 0 01-7.16 3.125 9.732 9.732 0 01-4.855-1.29A9.758 9.758 0 01.82 9.761C.82 4.371 5.191 0 10.582 0c5.392 0 9.763 4.37 9.763 9.762zm-7.932-2.341a1.83 1.83 0 11-3.661 0 1.83 1.83 0 013.66 0zm1.22 0a3.05 3.05 0 11-6.101 0 3.05 3.05 0 016.101 0z" fill="#29292B"/></svg>