<svg width="64" height="58" fill="none" xmlns="http://www.w3.org/2000/svg"><path d="M63.174 21.518a.951.951 0 00-.938-.963H39.404v-8.03a.951.951 0 00-.938-.963h-7.817V8.03a8.161 8.161 0 00-.614-3.126 8.032 8.032 0 00-1.677-2.553 7.774 7.774 0 00-2.484-1.72A7.592 7.592 0 0022.831 0a7.59 7.59 0 00-3.044.63l-.074.035-.074-.034A7.581 7.581 0 0016.597 0c-1.056 0-2.08.212-3.044.63a7.79 7.79 0 00-2.485 1.721 8.012 8.012 0 00-1.675 2.553 8.159 8.159 0 00-.615 3.126v3.532H.938a.951.951 0 00-.938.964v43.68c0 .532.42.963.938.963h31.25l.023.002h30.025a.952.952 0 00.938-.964l-.001-.027.001-.027V21.518zM22.83 1.926a5.836 5.836 0 014.202 1.788 6.15 6.15 0 011.74 4.316v3.532h-4.357V8.03a8.16 8.16 0 00-.615-3.126 7.993 7.993 0 00-2.017-2.882 5.859 5.859 0 011.047-.096zm-3.117.907c.39.247.753.54 1.085.881a6.158 6.158 0 011.741 4.316v3.532h-5.65V8.03a6.15 6.15 0 011.74-4.316c.33-.34.695-.634 1.084-.88zm-7.318.881a5.836 5.836 0 015.25-1.692 8.014 8.014 0 00-2.018 2.882 8.186 8.186 0 00-.615 3.126v3.532h-4.357V8.03a6.15 6.15 0 011.74-4.316zm18.878 51.528H1.876V13.49h6.902v6.746c0 .53.42.962.939.962a.952.952 0 00.938-.962V13.49h11.884v6.746c0 .53.42.962.938.962a.952.952 0 00.938-.962V13.49h6.858v41.753zm6.255.002h-4.379V13.488h4.379v41.754zm17.515 0H39.404V32.695a6.96 6.96 0 001.863-.517 7.146 7.146 0 002.287-1.583 7.382 7.382 0 001.541-2.348c.375-.91.566-1.879.566-2.876a.951.951 0 00-.939-.963.952.952 0 00-.938.963 5.508 5.508 0 01-1.556 3.861 5.24 5.24 0 01-2.824 1.514v-8.265h15.639v32.761zm6.255 0h-4.379V22.481h4.379v32.761z" fill="#C6B09F"/></svg>