<svg width="65" height="48" fill="none" xmlns="http://www.w3.org/2000/svg"><path d="M15.362 34.006c-3.866-.257-7.055 3.032-6.805 6.99.2 3.275 2.777 5.922 5.967 6.127 3.865.258 7.055-3.031 6.805-6.988-.2-3.277-2.777-5.923-5.967-6.129zm-.138 10.934c-2.577.166-4.703-2.018-4.54-4.664.137-2.184 1.863-3.944 3.978-4.086 2.576-.167 4.703 2.017 4.54 4.664-.137 2.184-1.85 3.944-3.978 4.086zm36.429-10.934c-3.865-.257-7.055 3.032-6.805 6.99.2 3.275 2.777 5.922 5.967 6.127 3.865.258 7.055-3.031 6.805-6.988-.188-3.277-2.764-5.923-5.967-6.129zm-.138 10.934c-2.577.166-4.703-2.018-4.54-4.664.137-2.184 1.863-3.944 3.977-4.086 2.578-.167 4.704 2.017 4.541 4.664-.125 2.184-1.85 3.944-3.978 4.086z" fill="#C6B09F"/><path d="M63.875 27.918l-9.608-15.352a1.082 1.082 0 00-.9-.502H41.62c-.588 0-1.063.489-1.063 1.092V40.56c0 .604.475 1.092 1.063 1.092h4.266v-2.197h-3.203V14.261h10.108l9.12 14.57v10.637h-5.342v2.197h6.405c.588 0 1.063-.489 1.063-1.092V28.509a1.006 1.006 0 00-.162-.59z" fill="#C6B09F"/><path d="M46.973 26.312v-7.67h8.544v-2.197H45.91c-.588 0-1.063.488-1.063 1.092v9.867c0 .604.475 1.092 1.063 1.092h16.012V26.3l-14.949.013zM41.632 4.395H1.063C.475 4.395 0 4.883 0 5.487v35.086c0 .603.475 1.092 1.063 1.092h8.544v-2.197H2.14V6.578h38.43v32.89H20.28v2.197h21.353c.588 0 1.064-.489 1.064-1.092V5.487c0-.604-.476-1.092-1.064-1.092z" fill="#C6B09F"/><path d="M2.14 35.086h4.266c.587 0 1.063.488 1.063 1.092 0 .604-.476 1.092-1.063 1.092H2.14c-.588 0-1.064-.488-1.064-1.092a1.07 1.07 0 011.064-1.092zm21.34 0h16.013c.588 0 1.063.488 1.063 1.092 0 .604-.475 1.092-1.063 1.092H23.48c-.588 0-1.063-.488-1.063-1.092 0-.604.475-1.092 1.063-1.092zm36.303 0h2.14c.587 0 1.063.488 1.063 1.092 0 .604-.476 1.092-1.064 1.092h-2.139c-.588 0-1.063-.488-1.063-1.092a1.07 1.07 0 011.063-1.092zM5.342 8.775h35.227c.588 0 1.063.489 1.063 1.093 0 .603-.475 1.092-1.063 1.092H5.342c-.588 0-1.063-.489-1.063-1.092a1.07 1.07 0 011.063-1.093zm9.608 30.692c.587 0 1.063.488 1.063 1.092 0 .604-.476 1.092-1.064 1.092-.588 0-1.063-.489-1.063-1.092a1.077 1.077 0 011.063-1.092zm36.29 0c.587 0 1.062.488 1.062 1.092 0 .604-.475 1.092-1.063 1.092s-1.063-.489-1.063-1.092c0-.591.475-1.092 1.063-1.092zM5.342 0h12.81c.588 0 1.063.488 1.063 1.092 0 .604-.475 1.092-1.063 1.092H5.342c-.588 0-1.063-.488-1.063-1.092A1.077 1.077 0 015.342 0zM1.063 0c.588 0 1.064.488 1.064 1.092 0 .604-.476 1.092-1.064 1.092C.475 2.184 0 1.696 0 1.092 0 .502.475 0 1.063 0z" fill="#C6B09F"/></svg>