<svg width="18" height="20" fill="none" xmlns="http://www.w3.org/2000/svg"><path d="M.6 5.933h16.8v12.8H.6v-12.8z" stroke="#29292B" stroke-width="1.2"/><mask id="a" fill="#fff"><path d="M12.676 7.066V3.807c0-1.01-.396-1.978-1.1-2.692A3.727 3.727 0 008.922 0a3.73 3.73 0 00-2.655 1.115 3.835 3.835 0 00-1.099 2.692v3.259"/></mask><path d="M11.576 1.115l-.854.843.854-.843zm-5.309 0l.855.843-.855-.843zm7.609 5.951V3.807h-2.4v3.259h2.4zm0-3.259A5.035 5.035 0 0012.43.273l-1.71 1.685c.481.487.755 1.152.755 1.85h2.4zM12.43.273A4.927 4.927 0 008.92-1.2v2.4c.673 0 1.32.27 1.8.758L12.43.273zM8.92-1.2c-1.319 0-2.58.532-3.508 1.473l1.709 1.685a2.527 2.527 0 011.8-.758v-2.4zM5.414.273a5.035 5.035 0 00-1.445 3.534h2.4c0-.697.273-1.362.754-1.85L5.412.274zM3.968 3.807v3.259h2.4V3.807h-2.4z" fill="#29292B" mask="url(#a)"/></svg>