<svg width="56" height="58" fill="none" xmlns="http://www.w3.org/2000/svg"><path d="M34.467 29.125c-.602 0-1.091.502-1.091 1.12 0 .618.489 1.12 1.09 1.12.603 0 1.091-.502 1.091-1.12 0-.618-.488-1.12-1.09-1.12z" fill="#C6B09F"/><path d="M.271 26.503l.009.011v.002l26.833 30.468c.2.227.503.37.809.37.305 0 .607-.141.809-.37l26.832-30.469.001-.001.009-.01c.35-.41.359-1.01.041-1.427l-.008-.013-8.726-11.201a1.08 1.08 0 00-.852-.42H9.816a1.08 1.08 0 00-.852.42L.238 25.064l-.008.013a1.143 1.143 0 00.041 1.426zm21.724-10.82h11.854l5.235 8.96H16.76l5.236-8.96zm-5.489 11.201h22.831L27.922 53.458 16.506 26.884zm25.216 0h10.575L31.65 50.33l10.072-23.445zm-27.6 0L24.194 50.33 3.547 26.884h10.575zm38.363-2.24H41.628l-5.235-8.961h9.11l6.982 8.96zM10.34 15.683h9.111l-5.236 8.96H3.36l6.98-8.96z" fill="#C6B09F"/><path d="M30.103 29.125h-8.095c-.603 0-1.091.501-1.091 1.12 0 .619.488 1.12 1.09 1.12h8.096c.603 0 1.09-.501 1.09-1.12 0-.619-.487-1.12-1.09-1.12zM27.922 8.962c.602 0 1.09-.502 1.09-1.12V1.12c0-.618-.488-1.12-1.09-1.12-.603 0-1.09.502-1.09 1.12v6.721c0 .62.487 1.12 1.09 1.12zm7.316-.329l4.363-4.48a1.142 1.142 0 000-1.585 1.07 1.07 0 00-1.543 0L33.695 7.05a1.142 1.142 0 000 1.584 1.07 1.07 0 001.543 0zm-14.632 0a1.07 1.07 0 001.543 0 1.142 1.142 0 000-1.584l-4.363-4.48a1.07 1.07 0 00-1.543 0 1.142 1.142 0 000 1.584l4.363 4.48z" fill="#C6B09F"/></svg>