<svg width="22" height="20" fill="none" xmlns="http://www.w3.org/2000/svg"><path d="M19.216 10.268l.428.42-.428-.42-5.099 5.201s0 0 0 0l-2.857 2.915h0l-.278.283-.277-.283-2.857-2.915-.395.388.395-.388-5.098-5.201C2.2 9.708 1.205 8.396.79 6.843h0C.398 5.378.51 3.719 2.09 2.108 2.894 1.29 3.69.874 4.443.701c.756-.174 1.507-.11 2.226.09 1.507.419 2.787 1.427 3.337 1.989l.548.559.429.437.429-.437.548-.56c.55-.56 1.83-1.57 3.337-1.988l-.16-.578.16.578c.719-.2 1.47-.264 2.226-.09.752.173 1.549.589 2.352 1.408 1.58 1.61 1.693 3.27 1.301 4.734-.415 1.553-1.41 2.865-1.96 3.425z" stroke="#29292B" stroke-width="1.2"/></svg>