<svg width="51" height="66" fill="none" xmlns="http://www.w3.org/2000/svg"><path d="M49.957 27.008a5.188 5.188 0 00-.57-6.318 3.234 3.234 0 01-.791-2.855c.481-2.333-.651-4.668-2.754-5.68A3.167 3.167 0 0144.1 9.787c-.372-2.354-2.25-4.112-4.566-4.275a3.084 3.084 0 01-2.457-1.563c-1.175-2.057-3.544-3-5.762-2.292a3.028 3.028 0 01-2.84-.545 4.849 4.849 0 00-6.179 0 3.028 3.028 0 01-2.84.545c-2.218-.707-4.588.235-5.762 2.292a3.084 3.084 0 01-2.457 1.563c-2.317.163-4.195 1.92-4.567 4.275a3.167 3.167 0 01-1.741 2.368c-2.103 1.012-3.235 3.348-2.754 5.68a3.234 3.234 0 01-.791 2.855 5.188 5.188 0 00-.57 6.319c.56.88.659 1.984.266 2.955-.89 2.202-.195 4.712 1.691 6.103a3.205 3.205 0 011.288 2.657c-.055 2.384 1.476 4.466 3.724 5.064.663.176 1.24.57 1.653 1.108l-5.17 12.817c-.724 1.796.916 3.646 2.724 3.076l5.66-1.784a.358.358 0 01.424.181l2.774 5.371c.887 1.718 3.32 1.597 4.043-.197l5.388-13.359a3 3 0 01.212 0l5.388 13.36a2.213 2.213 0 004.044.196l2.773-5.37a.357.357 0 01.425-.182l5.66 1.784c1.809.57 3.447-1.28 2.723-3.076l-5.17-12.816c.413-.538.99-.933 1.653-1.109 2.248-.597 3.78-2.68 3.724-5.064a3.205 3.205 0 011.288-2.657c1.886-1.39 2.581-3.9 1.69-6.103a3.252 3.252 0 01.268-2.956zm-31.8 36.614a.356.356 0 01-.651.032l-2.774-5.371a2.217 2.217 0 00-2.633-1.12l-5.66 1.784c-.293.092-.556-.205-.439-.496l4.586-11.372c1.035 1.456 2.765 2.267 4.586 2.049a3.051 3.051 0 012.695 1.072 4.897 4.897 0 003.745 1.762 4.83 4.83 0 001.325-.188l-4.78 11.848zm26.174-4.675l-5.659-1.784a2.217 2.217 0 00-2.633 1.12l-2.774 5.371a.356.356 0 01-.652-.032l-4.778-11.846c1.816.518 3.788-.062 5.069-1.577a3.05 3.05 0 012.695-1.072c1.823.22 3.551-.592 4.586-2.048L44.77 58.45c.118.293-.147.589-.44.497zm4.055-32.992a5.22 5.22 0 00-.428 4.748 3.216 3.216 0 01-1.053 3.799 5.15 5.15 0 00-2.07 4.268c.035 1.484-.918 2.78-2.317 3.152a4.985 4.985 0 00-3.068 2.406l-.005.01c-.14.253-.26.518-.358.796-.49 1.397-1.834 2.253-3.27 2.08a4.9 4.9 0 00-4.33 1.722c-.947 1.12-2.502 1.42-3.78.726a4.881 4.881 0 00-3.274-.495 4.887 4.887 0 00-1.369.495c-1.278.693-2.832.395-3.78-.726a4.913 4.913 0 00-4.33-1.722c-1.435.172-2.78-.683-3.27-2.08a5.172 5.172 0 00-.358-.795l-.006-.012a4.985 4.985 0 00-3.067-2.405c-1.399-.372-2.352-1.668-2.317-3.152a5.149 5.149 0 00-2.07-4.268 3.215 3.215 0 01-1.052-3.8 5.22 5.22 0 00-.429-4.747 3.23 3.23 0 01.355-3.933 5.196 5.196 0 001.27-4.586c-.299-1.452.406-2.906 1.715-3.536 1.489-.716 2.535-2.139 2.798-3.805.232-1.465 1.4-2.56 2.843-2.661 1.64-.116 3.115-1.054 3.947-2.51.731-1.28 2.206-1.867 3.586-1.427 1.57.5 3.276.173 4.564-.876a3.018 3.018 0 013.846 0 4.864 4.864 0 004.563.876c1.38-.44 2.856.147 3.587 1.427.832 1.456 2.307 2.394 3.947 2.51 1.442.102 2.611 1.196 2.843 2.661.263 1.666 1.309 3.089 2.797 3.805 1.31.63 2.014 2.084 1.715 3.536a5.195 5.195 0 001.27 4.586 3.23 3.23 0 01.355 3.933z" fill="#C6B09F"/><path d="M7.616 24.683a.944.944 0 001.045-.838c1.036-8.649 8.226-15.17 16.725-15.17 8.502 0 15.692 6.525 16.725 15.178a.947.947 0 001.045.839.959.959 0 00.817-1.074c-1.148-9.617-9.139-16.87-18.587-16.87-9.445 0-17.435 7.249-18.587 16.861a.959.959 0 00.817 1.074zm35.541 2.586a.945.945 0 00-1.046.84C41.08 36.76 33.89 43.286 25.386 43.286c-8.499 0-15.689-6.522-16.725-15.171a.944.944 0 00-1.045-.839.958.958 0 00-.817 1.074c1.151 9.613 9.142 16.863 18.587 16.863 9.449 0 17.44-7.253 18.587-16.872a.958.958 0 00-.816-1.073z" fill="#C6B09F"/><path d="M38.633 22.006c-.238-.754-.89-1.26-1.662-1.288l-7.356-.27-2.524-7.101c-.264-.745-.934-1.226-1.705-1.226-.772 0-1.441.481-1.706 1.226l-2.524 7.1-7.356.271c-.771.029-1.424.534-1.662 1.288-.238.753 0 1.556.608 2.045l5.795 4.66-2.022 7.268a1.875 1.875 0 00.68 2.02 1.76 1.76 0 002.08.04l6.106-4.222 6.107 4.22a1.76 1.76 0 002.08-.037c.625-.466.892-1.26.68-2.022l-2.023-7.268 5.796-4.66a1.877 1.877 0 00.608-2.044zm-7.592 5.212a1.886 1.886 0 00-.627 1.981l1.988 7.145-6.002-4.149a1.78 1.78 0 00-1.015-.32 1.78 1.78 0 00-1.014.32l-6.002 4.15 1.988-7.146a1.887 1.887 0 00-.627-1.98l-5.698-4.581 7.232-.267a1.814 1.814 0 001.64-1.224l2.482-6.98 2.48 6.98a1.813 1.813 0 001.642 1.224l7.23.267-5.697 4.58z" fill="#C6B09F"/></svg>