<svg width="169" height="35" fill="none" xmlns="http://www.w3.org/2000/svg"><path d="M126.077 2.937l-.247-.692c-7.243 2.94-19.015 2.94-26.258 0-7.35-2.978-19.28-2.996-26.664-.038-5.957-.468-12.372.244-16.99 2.116l.248.693c7.243-2.94 19.015-2.94 26.258 0 3.683 1.498 8.53 2.247 13.376 2.247 4.811 0 9.605-.73 13.288-2.21 1.199.094 2.397.131 3.613.131 4.846.019 9.693-.749 13.376-2.247zM82.689 4.323c-2.327-.936-5.093-1.592-8.054-1.947 7.278-2.36 17.958-2.172 24.69.561 2.326.937 5.093 1.592 8.054 1.948-7.296 2.359-17.958 2.172-24.69-.562zM7.137 16.512c1.199-.674 2.697-1.011 4.512-1.011 1.621 0 3.066.337 4.318 1.01 1.268.675 2.185 1.611 2.766 2.828l3.296-.861c-.687-1.742-1.956-3.108-3.824-4.1-1.85-.993-4.036-1.499-6.538-1.499-2.468 0-4.547.45-6.274 1.348-1.727.9-3.05 2.135-3.966 3.745C.511 19.582.035 21.436 0 23.571c.035 2.078.493 3.932 1.392 5.542.899 1.61 2.203 2.865 3.93 3.782 1.727.918 3.842 1.367 6.327 1.367 2.467 0 4.582-.468 6.344-1.423 1.78-.936 3.12-2.322 4.036-4.12l-3.384-.823a6.311 6.311 0 01-2.696 2.771c-1.18.637-2.626.955-4.3.955-2.661 0-4.653-.73-6.01-2.21-1.339-1.46-2.026-3.407-2.061-5.841.017-1.573.317-2.959.898-4.176.6-1.254 1.48-2.19 2.661-2.883zm44.128.45c-.652-1.311-1.78-2.322-3.348-3.015-1.586-.693-3.49-1.049-5.745-1.049-2.732 0-4.952.506-6.662 1.498-1.71.993-2.837 2.397-3.401 4.213l3.278.787c.476-1.349 1.286-2.34 2.467-2.959 1.163-.618 2.59-.936 4.282-.936 2.45 0 4.177.487 5.164 1.442.917.88 1.392 2.21 1.41 3.988-.81.094-1.692.187-2.644.28-1.462.15-2.943.32-4.458.506a50.838 50.838 0 00-4.16.675c-1.233.262-2.325.636-3.26 1.142-.934.505-1.674 1.142-2.22 1.928-.546.787-.81 1.723-.81 2.828 0 1.067.316 2.06.933 2.977.617.917 1.569 1.647 2.82 2.19 1.251.543 2.82.824 4.67.824 2.467 0 4.582-.45 6.362-1.367 1.251-.636 2.256-1.479 3.049-2.546v3.351h2.996V21.156c0-.75-.053-1.48-.141-2.21a5.26 5.26 0 00-.582-1.985zM48.41 26.51c-.211 1.01-.687 1.928-1.392 2.733-.722.806-1.674 1.442-2.837 1.91-1.181.468-2.556.693-4.124.693-1.322 0-2.397-.187-3.19-.543-.81-.356-1.374-.824-1.744-1.367-.353-.543-.547-1.123-.547-1.704 0-.73.212-1.33.635-1.816.422-.487.951-.88 1.62-1.18.653-.3 1.34-.524 2.045-.692a43.396 43.396 0 013.49-.58c1.286-.17 2.608-.3 3.947-.431.846-.075 1.657-.15 2.432-.244 0 .3-.017.656-.017 1.068a9.977 9.977 0 01-.318 2.153zM67.866 6.195h-3.348V33.72h3.348V6.195zm29.466 8.014c-1.744-.9-3.86-1.367-6.344-1.367-2.414 0-4.494.45-6.239 1.348-1.744.899-3.101 2.135-4.053 3.745-.952 1.591-1.427 3.464-1.427 5.58 0 2.078.458 3.931 1.392 5.542.934 1.61 2.273 2.865 4.018 3.782 1.745.917 3.842 1.367 6.309 1.367 2.45 0 4.547-.45 6.31-1.348 1.761-.9 3.101-2.154 4.035-3.764.934-1.61 1.392-3.464 1.392-5.598 0-2.079-.458-3.932-1.392-5.543-.917-1.572-2.256-2.827-4-3.744zm-.194 15.129c-1.339 1.497-3.4 2.246-6.15 2.246-2.679 0-4.705-.73-6.08-2.209-1.375-1.46-2.062-3.426-2.062-5.86 0-1.573.3-2.959.881-4.176a6.407 6.407 0 012.679-2.827c1.198-.674 2.732-1.011 4.582-1.011 2.732 0 4.776.73 6.133 2.172 1.357 1.441 2.026 3.389 2.026 5.841 0 2.378-.67 4.326-2.009 5.824zm36.516-12.17a7.966 7.966 0 00-1.869-2.191c-.775-.637-1.709-1.142-2.819-1.517-1.111-.374-2.397-.562-3.877-.562-2.009 0-3.807.356-5.358 1.086a8.47 8.47 0 00-2.961 2.229v-2.809h-3.048v20.24h3.383V22.86c0-1.143.159-2.172.476-3.071a6.26 6.26 0 011.41-2.303c.617-.637 1.375-1.124 2.291-1.46.916-.338 1.956-.506 3.155-.506 1.304 0 2.396.187 3.313.58.916.393 1.656.936 2.22 1.648.582.711.987 1.535 1.252 2.471.264.937.387 1.985.387 3.109v10.317h3.384V22.522c0-.917-.106-1.834-.317-2.752a9.95 9.95 0 00-1.022-2.602zm33.08 7.19h1.674c.07-2.378-.335-4.42-1.216-6.123a9.144 9.144 0 00-3.913-3.951c-1.727-.918-3.806-1.386-6.256-1.386-2.379 0-4.459.431-6.203 1.311-1.745.88-3.102 2.116-4.071 3.726-.969 1.61-1.445 3.52-1.445 5.73 0 2.134.493 3.988 1.462 5.58.987 1.591 2.344 2.808 4.124 3.688 1.763.88 3.86 1.31 6.274 1.31 2.397 0 4.547-.486 6.45-1.46 1.904-.973 3.349-2.34 4.318-4.1l-3.137-.993a7.676 7.676 0 01-3.137 2.903c-1.322.674-2.873 1.01-4.635 1.01-2.59 0-4.6-.71-6.009-2.115-1.269-1.255-1.974-2.977-2.098-5.168h17.818v.038zm-15.738-6.816c1.41-1.404 3.454-2.116 6.115-2.116 2.538 0 4.459.674 5.781 2.004 1.092 1.104 1.762 2.658 1.991 4.662h-15.914c.212-1.891.899-3.408 2.027-4.55z" fill="#29292B"/></svg>