<svg width="154" height="35" fill="none" xmlns="http://www.w3.org/2000/svg"><path d="M69.723 21.36v-4.775c0-1.801-1.15-3.014-2.998-3.03a2.95 2.95 0 00-2.677 1.356 2.797 2.797 0 00-2.517-1.356 2.521 2.521 0 00-2.228 1.133v-.955h-1.658v7.626h1.674v-4.223c0-1.324.732-2.024 1.865-2.024s1.658.716 1.658 2.008v4.24h1.664v-4.224c0-1.324.764-2.024 1.865-2.024 1.102 0 1.675.716 1.675 2.008v4.24h1.677zm24.77-7.62h-2.708v-2.31h-1.674v2.31h-1.547v1.515h1.547v3.472c0 1.77.684 2.823 2.645 2.823a3.895 3.895 0 002.072-.589l-.478-1.42a3.06 3.06 0 01-1.467.43c-.827 0-1.101-.509-1.101-1.273v-3.443h2.709l.003-1.515zm14.141-.191a2.245 2.245 0 00-2.008 1.117v-.926h-1.642v7.62h1.658v-4.272c0-1.273.541-1.96 1.626-1.96a2.71 2.71 0 011.038.19l.509-1.562a3.543 3.543 0 00-1.181-.207zm-21.378.796a5.698 5.698 0 00-3.11-.796c-1.928 0-3.182.926-3.182 2.438 0 1.244.923 2.008 2.629 2.247l.78.111c.907.128 1.34.366 1.34.796 0 .589-.605.926-1.738.926a4.061 4.061 0 01-2.546-.796l-.755 1.29a5.496 5.496 0 003.3.99c2.2 0 3.476-1.038 3.476-2.486 0-1.34-1.005-2.04-2.66-2.28l-.78-.11c-.716-.096-1.292-.24-1.292-.749 0-.557.54-.89 1.451-.89a4.91 4.91 0 012.374.652l.713-1.343zm44.405-.796a2.25 2.25 0 00-2.008 1.117v-.926h-1.642v7.62h1.658v-4.272c0-1.273.541-1.96 1.626-1.96a2.71 2.71 0 011.038.19l.509-1.562a3.543 3.543 0 00-1.181-.207zm-21.353 4c0 2.311 1.611 4.001 4.065 4.001a3.99 3.99 0 002.74-.91l-.796-1.34a3.347 3.347 0 01-1.992.684c-1.324 0-2.295-.974-2.295-2.438 0-1.464.974-2.422 2.295-2.438.72.008 1.419.248 1.992.685l.796-1.34a3.99 3.99 0 00-2.74-.91c-2.454 0-4.065 1.69-4.065 4v.007zm15.526 0V13.73h-1.659v.926a2.88 2.88 0 00-2.406-1.117c-2.135 0-3.819 1.675-3.819 4.001 0 2.327 1.674 4 3.819 4a2.892 2.892 0 002.406-1.116v.922h1.659V17.55zm-6.168 0c0-1.34.875-2.437 2.31-2.437 1.372 0 2.295 1.053 2.295 2.438 0 1.384-.923 2.438-2.295 2.438-1.435 0-2.31-1.102-2.31-2.438zm-20.007-4c-2.228 0-3.794 1.626-3.794 4 0 2.423 1.627 4.001 3.906 4.001 1.137.04 2.25-.34 3.125-1.07l-.812-1.228a3.63 3.63 0 01-2.228.796c-1.069 0-2.04-.493-2.278-1.865h5.659c.015-.207.031-.414.031-.637 0-2.374-1.483-4-3.618-4l.01.003zm-.032 1.483c1.07 0 1.754.668 1.929 1.85h-3.95c.175-1.102.844-1.85 2.025-1.85h-.004zm41.582 2.518v-6.872h-1.658v3.985a2.897 2.897 0 00-2.406-1.117c-2.136 0-3.819 1.674-3.819 4 0 2.327 1.674 4.001 3.819 4.001a2.892 2.892 0 002.406-1.117v.923h1.658V17.55zm1.938 3.106a.483.483 0 01.347.143.48.48 0 01.105.528.51.51 0 01-.261.258.476.476 0 01-.191.038.49.49 0 01-.458-.671.486.486 0 01.465-.296h-.007zm0 .86a.36.36 0 00.265-.109.381.381 0 000-.535.378.378 0 10-.414.615c.049.02.102.03.156.028h-.007zm.029-.605a.205.205 0 01.134.038.13.13 0 01.047.105.109.109 0 01-.009.05.109.109 0 01-.029.042.178.178 0 01-.105.045l.147.168h-.115l-.137-.168h-.044v.168h-.096v-.445l.207-.004zm-.111.082v.121h.111a.11.11 0 00.061 0 .044.044 0 00.016-.02.055.055 0 000-.05.043.043 0 00-.016-.019.11.11 0 00-.061 0l-.111-.032zm-8.018-3.443c0-1.34.876-2.438 2.311-2.438 1.372 0 2.295 1.053 2.295 2.438 0 1.384-.923 2.438-2.295 2.438-1.435 0-2.311-1.102-2.311-2.438zm-55.983 0v-3.82h-1.658v.926a2.889 2.889 0 00-2.397-1.107c-2.135 0-3.819 1.674-3.819 4 0 2.327 1.674 4.001 3.82 4.001a2.89 2.89 0 002.405-1.117v.923h1.659l-.01-3.806zm-6.168 0c0-1.34.875-2.438 2.31-2.438 1.372 0 2.295 1.053 2.295 2.438 0 1.384-.923 2.438-2.294 2.438-1.436 0-2.311-1.098-2.311-2.438z" fill="#29292B" fill-opacity=".3"/><path d="M36.487 8.492H26.462v18.017h10.025V8.492z" fill="#616161" fill-opacity=".3"/><path d="M27.098 17.506a11.437 11.437 0 014.376-9.007 11.458 11.458 0 100 18.017 11.439 11.439 0 01-4.376-9.01z" fill="#9F9F9F"/><path d="M50.013 17.505a11.458 11.458 0 01-18.54 9.007 11.458 11.458 0 000-18.017 11.458 11.458 0 0118.54 9.01z" fill="#E8E8E8"/><path d="M48.912 24.599v-.37h.15v-.072h-.372v.076h.149v.37l.073-.004zm.735 0v-.446h-.098l-.134.319-.134-.319h-.117v.446h.066v-.334l.125.29h.086l.124-.29v.337l.082-.003z" fill="#29292B" fill-opacity=".3"/></svg>