<svg width="51" height="15" fill="none" xmlns="http://www.w3.org/2000/svg"><path fill-rule="evenodd" clip-rule="evenodd" d="M45.275 0h-9.68c.521 3.321 3.644 6.429 7.078 6.429h7.702c.104-.322.104-.75.104-1.072 0-3-2.29-5.357-5.204-5.357zm-8.846 6.964V15h4.683v-4.286h4.164c2.29 0 4.267-1.607 4.891-3.75H36.43zM19.775 0v15h4.164s1.04 0 1.56-1.071l3.644-7.5h.52V15h4.684V0h-4.163s-1.041.107-1.562 1.071l-3.642 7.5h-.52V0h-4.685zM0 15V0h4.684s1.353 0 2.081 2.143C8.64 7.82 8.847 8.57 8.847 8.57s.416-1.392 2.082-6.428C11.657 0 13.01 0 13.01 0h4.684v15H13.01V6.964h-.52L9.888 15H7.806L5.204 6.964h-.52V15H0z" fill="#29292B" fill-opacity=".3"/></svg>