<svg width="50" height="16" fill="none" xmlns="http://www.w3.org/2000/svg"><path d="M19.717.487l-2.502 14.686h4.002L23.722.487h-4.005zm-5.86.017l-3.92 10.015-.418-1.512c-.773-1.822-2.968-4.44-5.544-6.088l3.584 12.247 4.235-.008L18.097.502l-4.24.003z" fill="#29292B" fill-opacity=".3"/><path d="M8 1.555C7.769.66 7.095.393 6.258.362H.05L0 .654c4.829 1.171 8.024 3.994 9.35 7.388L8 1.555zm23.832 1.748a7.39 7.39 0 012.996.562l.361.17.542-3.183c-.793-.298-2.035-.617-3.586-.617-3.955 0-6.742 1.992-6.764 4.847-.026 2.11 1.986 3.287 3.505 3.99 1.56.72 2.083 1.179 2.076 1.822-.013.983-1.244 1.434-2.394 1.434-1.603 0-2.454-.221-3.769-.77l-.515-.234-.563 3.287c.936.41 2.665.764 4.46.782 4.206 0 6.94-1.968 6.97-5.018.017-1.669-1.05-2.942-3.364-3.987-1.4-.681-2.256-1.134-2.248-1.822 0-.61.727-1.263 2.293-1.263zM46.001.504H42.91c-.96 0-1.675.261-2.097 1.219L34.869 15.18h4.203s.686-1.81.841-2.206l5.126.006c.12.513.488 2.2.488 2.2h3.713L46 .504zm-4.936 9.465c.33-.843 1.595-4.104 1.595-4.104-.022.04.326-.85.533-1.402l.27 1.266.927 4.24h-3.325z" fill="#29292B" fill-opacity=".3"/></svg>